# xmcd CD database file
#
# Track frame offsets:
#	150
#	33354
#	80971
#	122694
#	156858
#	214404
#	240044
#	270302
#	307514
#
# Disc length: 4515 seconds
#
# Revision: 0
# Processed by: cddbd v1.5.1PL0 Copyright (c) Steve Scherf et al.
# Submitted via: CDex 1.51
#
DISCID=6811a109
DTITLE=Juan Pablo Arredondo - Lo que las paredes oyen
DYEAR=2004
DGENRE=Jazz
TTITLE0=Distraído
TTITLE1=Cartoon
TTITLE2=Libélulas
TTITLE3=Labina
TTITLE4=El mar en sus ojos
TTITLE5=Mariposa
TTITLE6=Espejo en el suelo
TTITLE7=El lagarto
TTITLE8=Lo que las paredes oyen
EXTD=YEAR: 2004
EXTT0=
EXTT1=
EXTT2=
EXTT3=
EXTT4=
EXTT5=
EXTT6=
EXTT7=
EXTT8=
PLAYORDER=
